<?xml version="1.0" encoding="UTF-8" standalone="no"?>
<!DOCTYPE svg PUBLIC "-//W3C//DTD SVG 1.1//EN" "http://www.w3.org/Graphics/SVG/1.1/DTD/svg11.dtd">
<svg xmlns="http://www.w3.org/2000/svg" version="1.1" viewBox="0 0 200 200">
 <g  transform="rotate(0 100 100)"><!--QuoInsight-->
  <circle cx="100" cy="100" r="70" stroke="#000" stroke-width="1" fill="none" fill-opacity="0"></circle>

  <line id="l000" x1="100" y1="15" x2="100" y2="185" stroke-width="1" stroke="#000" fill="none"/>
  <line id="l090" x1="15" y1="100" x2="185" y2="100" stroke-width="1" stroke="#000" fill="none"/>
  <line id="l045" x1="39.9" y1="160.1" x2="160.1" y2="39.9" stroke-width="1" stroke="#000" fill="none"/>
  <line id="l315" x1="39.9" y1="39.9" x2="160.1" y2="160.1" stroke-width="1" stroke="#000" fill="none"/>

  <line id="l030" x1="57.5" y1="173.6" x2="142.5" y2="26.4" stroke-dasharray="2,2" stroke-width="0.5" stroke="#CCC" fill="none"/>
  <line id="l060" x1="26.4" y1="142.5" x2="173.6" y2="57.5" stroke-dasharray="2,2" stroke-width="0.5" stroke="#CCC" fill="none"/>
  <line id="l120" x1="26.4" y1="57.5" x2="173.6" y2="142.5" stroke-dasharray="2,2" stroke-width="0.5" stroke="#CCC" fill="none"/>
  <line id="l150" x1="57.5" y1="26.4" x2="142.5" y2="173.6" stroke-dasharray="2,2" stroke-width="0.5" stroke="#CCC" fill="none"/>

  <line id="l010" x1="114.8" y1="16.3" x2="85.2" y2="183.7" stroke-dasharray="2,2" stroke-width="0.5" stroke="#CCC" fill="none"/>
  <line id="l020" x1="129.1" y1="20.1" x2="70.9" y2="179.1" stroke-dasharray="2,2" stroke-width="0.5" stroke="#CCC" fill="none"/>
  <line id="l040" x1="154.6" y1="34.9" x2="45.4" y2="165.1" stroke-dasharray="2,2" stroke-width="0.5" stroke="#CCC" fill="none"/>
  <line id="l050" x1="165.1" y1="45.4" x2="34.9" y2="154.6" stroke-dasharray="2,2" stroke-width="0.5" stroke="#CCC" fill="none"/>
  <line id="l070" x1="179.9" y1="70.9" x2="20.1" y2="129.1" stroke-dasharray="2,2" stroke-width="0.5" stroke="#CCC" fill="none"/>
  <line id="l080" x1="183.7" y1="85.2" x2="16.3" y2="114.8" stroke-dasharray="2,2" stroke-width="0.5" stroke="#CCC" fill="none"/>
  <line id="l100" x1="183.7" y1="114.8" x2="16.3" y2="85.2" stroke-dasharray="2,2" stroke-width="0.5" stroke="#CCC" fill="none"/>
  <line id="l110" x1="179.9" y1="129.1" x2="20.1" y2="70.9" stroke-dasharray="2,2" stroke-width="0.5" stroke="#CCC" fill="none"/>
  <line id="l130" x1="165.1" y1="154.6" x2="34.9" y2="45.4" stroke-dasharray="2,2" stroke-width="0.5" stroke="#CCC" fill="none"/>
  <line id="l140" x1="154.6" y1="165.1" x2="45.4" y2="34.9" stroke-dasharray="2,2" stroke-width="0.5" stroke="#CCC" fill="none"/>
  <line id="l160" x1="129.1" y1="179.9" x2="70.9" y2="20.1" stroke-dasharray="2,2" stroke-width="0.5" stroke="#CCC" fill="none"/>
  <line id="l170" x1="114.8" y1="183.7" x2="85.2" y2="16.3" stroke-dasharray="2,2" stroke-width="0.5" stroke="#CCC" fill="none"/>

  <!--
    ="id=""l" &A1 & """ x1=""" & round(100+(60*COS((A1-90)*PI( )/180)),1)
    & """ y1=""" & round(100+(60*SIN((A1-90)*PI( )/180)),1)
    & """ x2=""" & round(100+(65*COS((A1-90)*PI( )/180)),1)
    & """ y2=""" & round(100+(65*SIN((A1-90)*PI( )/180)),1) & """"
  -->
  <line id="l0000" x1="100" y1="40" x2="100" y2="35" stroke-width="0.5" stroke="#000" fill="none"/>
  <line id="l0002" x1="102.1" y1="40" x2="102.3" y2="35" stroke-width="0.5" stroke="#000" fill="none"/>
  <line id="l0004" x1="104.2" y1="40.1" x2="104.5" y2="35.2" stroke-width="0.5" stroke="#000" fill="none"/>
  <line id="l0006" x1="106.3" y1="40.3" x2="106.8" y2="35.4" stroke-width="0.5" stroke="#000" fill="none"/>
  <line id="l0008" x1="108.4" y1="40.6" x2="109" y2="35.6" stroke-width="0.5" stroke="#000" fill="none"/>
  <line id="l0010" x1="110.4" y1="40.9" x2="111.3" y2="36" stroke-width="0.5" stroke="#000" fill="none"/>
  <line id="l0012" x1="112.5" y1="41.3" x2="113.5" y2="36.4" stroke-width="0.5" stroke="#000" fill="none"/>
  <line id="l0014" x1="114.5" y1="41.8" x2="115.7" y2="36.9" stroke-width="0.5" stroke="#000" fill="none"/>
  <line id="l0016" x1="116.5" y1="42.3" x2="117.9" y2="37.5" stroke-width="0.5" stroke="#000" fill="none"/>
  <line id="l0018" x1="118.5" y1="42.9" x2="120.1" y2="38.2" stroke-width="0.5" stroke="#000" fill="none"/>
  <line id="l0020" x1="120.5" y1="43.6" x2="122.2" y2="38.9" stroke-width="0.5" stroke="#000" fill="none"/>
  <line id="l0022" x1="122.5" y1="44.4" x2="124.3" y2="39.7" stroke-width="0.5" stroke="#000" fill="none"/>
  <line id="l0024" x1="124.4" y1="45.2" x2="126.4" y2="40.6" stroke-width="0.5" stroke="#000" fill="none"/>
  <line id="l0026" x1="126.3" y1="46.1" x2="128.5" y2="41.6" stroke-width="0.5" stroke="#000" fill="none"/>
  <line id="l0028" x1="128.2" y1="47" x2="130.5" y2="42.6" stroke-width="0.5" stroke="#000" fill="none"/>
  <line id="l0030" x1="130" y1="48" x2="132.5" y2="43.7" stroke-width="0.5" stroke="#000" fill="none"/>
  <line id="l0032" x1="131.8" y1="49.1" x2="134.4" y2="44.9" stroke-width="0.5" stroke="#000" fill="none"/>
  <line id="l0034" x1="133.6" y1="50.3" x2="136.3" y2="46.1" stroke-width="0.5" stroke="#000" fill="none"/>
  <line id="l0036" x1="135.3" y1="51.5" x2="138.2" y2="47.4" stroke-width="0.5" stroke="#000" fill="none"/>
  <line id="l0038" x1="136.9" y1="52.7" x2="140" y2="48.8" stroke-width="0.5" stroke="#000" fill="none"/>
  <line id="l0040" x1="138.6" y1="54" x2="141.8" y2="50.2" stroke-width="0.5" stroke="#000" fill="none"/>
  <line id="l0042" x1="140.1" y1="55.4" x2="143.5" y2="51.7" stroke-width="0.5" stroke="#000" fill="none"/>
  <line id="l0044" x1="141.7" y1="56.8" x2="145.2" y2="53.2" stroke-width="0.5" stroke="#000" fill="none"/>
  <line id="l0046" x1="143.2" y1="58.3" x2="146.8" y2="54.8" stroke-width="0.5" stroke="#000" fill="none"/>
  <line id="l0048" x1="144.6" y1="59.9" x2="148.3" y2="56.5" stroke-width="0.5" stroke="#000" fill="none"/>
  <line id="l0050" x1="146" y1="61.4" x2="149.8" y2="58.2" stroke-width="0.5" stroke="#000" fill="none"/>
  <line id="l0052" x1="147.3" y1="63.1" x2="151.2" y2="60" stroke-width="0.5" stroke="#000" fill="none"/>
  <line id="l0054" x1="148.5" y1="64.7" x2="152.6" y2="61.8" stroke-width="0.5" stroke="#000" fill="none"/>
  <line id="l0056" x1="149.7" y1="66.4" x2="153.9" y2="63.7" stroke-width="0.5" stroke="#000" fill="none"/>
  <line id="l0058" x1="150.9" y1="68.2" x2="155.1" y2="65.6" stroke-width="0.5" stroke="#000" fill="none"/>
  <line id="l0060" x1="152" y1="70" x2="156.3" y2="67.5" stroke-width="0.5" stroke="#000" fill="none"/>
  <line id="l0062" x1="153" y1="71.8" x2="157.4" y2="69.5" stroke-width="0.5" stroke="#000" fill="none"/>
  <line id="l0064" x1="153.9" y1="73.7" x2="158.4" y2="71.5" stroke-width="0.5" stroke="#000" fill="none"/>
  <line id="l0066" x1="154.8" y1="75.6" x2="159.4" y2="73.6" stroke-width="0.5" stroke="#000" fill="none"/>
  <line id="l0068" x1="155.6" y1="77.5" x2="160.3" y2="75.7" stroke-width="0.5" stroke="#000" fill="none"/>
  <line id="l0070" x1="156.4" y1="79.5" x2="161.1" y2="77.8" stroke-width="0.5" stroke="#000" fill="none"/>
  <line id="l0072" x1="157.1" y1="81.5" x2="161.8" y2="79.9" stroke-width="0.5" stroke="#000" fill="none"/>
  <line id="l0074" x1="157.7" y1="83.5" x2="162.5" y2="82.1" stroke-width="0.5" stroke="#000" fill="none"/>
  <line id="l0076" x1="158.2" y1="85.5" x2="163.1" y2="84.3" stroke-width="0.5" stroke="#000" fill="none"/>
  <line id="l0078" x1="158.7" y1="87.5" x2="163.6" y2="86.5" stroke-width="0.5" stroke="#000" fill="none"/>
  <line id="l0080" x1="159.1" y1="89.6" x2="164" y2="88.7" stroke-width="0.5" stroke="#000" fill="none"/>
  <line id="l0082" x1="159.4" y1="91.6" x2="164.4" y2="91" stroke-width="0.5" stroke="#000" fill="none"/>
  <line id="l0084" x1="159.7" y1="93.7" x2="164.6" y2="93.2" stroke-width="0.5" stroke="#000" fill="none"/>
  <line id="l0086" x1="159.9" y1="95.8" x2="164.8" y2="95.5" stroke-width="0.5" stroke="#000" fill="none"/>
  <line id="l0088" x1="160" y1="97.9" x2="165" y2="97.7" stroke-width="0.5" stroke="#000" fill="none"/>
  <line id="l0090" x1="160" y1="100" x2="165" y2="100" stroke-width="0.5" stroke="#000" fill="none"/>
  <line id="l0092" x1="160" y1="102.1" x2="165" y2="102.3" stroke-width="0.5" stroke="#000" fill="none"/>
  <line id="l0094" x1="159.9" y1="104.2" x2="164.8" y2="104.5" stroke-width="0.5" stroke="#000" fill="none"/>
  <line id="l0096" x1="159.7" y1="106.3" x2="164.6" y2="106.8" stroke-width="0.5" stroke="#000" fill="none"/>
  <line id="l0098" x1="159.4" y1="108.4" x2="164.4" y2="109" stroke-width="0.5" stroke="#000" fill="none"/>
  <line id="l0100" x1="159.1" y1="110.4" x2="164" y2="111.3" stroke-width="0.5" stroke="#000" fill="none"/>
  <line id="l0102" x1="158.7" y1="112.5" x2="163.6" y2="113.5" stroke-width="0.5" stroke="#000" fill="none"/>
  <line id="l0104" x1="158.2" y1="114.5" x2="163.1" y2="115.7" stroke-width="0.5" stroke="#000" fill="none"/>
  <line id="l0106" x1="157.7" y1="116.5" x2="162.5" y2="117.9" stroke-width="0.5" stroke="#000" fill="none"/>
  <line id="l0108" x1="157.1" y1="118.5" x2="161.8" y2="120.1" stroke-width="0.5" stroke="#000" fill="none"/>
  <line id="l0110" x1="156.4" y1="120.5" x2="161.1" y2="122.2" stroke-width="0.5" stroke="#000" fill="none"/>
  <line id="l0112" x1="155.6" y1="122.5" x2="160.3" y2="124.3" stroke-width="0.5" stroke="#000" fill="none"/>
  <line id="l0114" x1="154.8" y1="124.4" x2="159.4" y2="126.4" stroke-width="0.5" stroke="#000" fill="none"/>
  <line id="l0116" x1="153.9" y1="126.3" x2="158.4" y2="128.5" stroke-width="0.5" stroke="#000" fill="none"/>
  <line id="l0118" x1="153" y1="128.2" x2="157.4" y2="130.5" stroke-width="0.5" stroke="#000" fill="none"/>
  <line id="l0120" x1="152" y1="130" x2="156.3" y2="132.5" stroke-width="0.5" stroke="#000" fill="none"/>
  <line id="l0122" x1="150.9" y1="131.8" x2="155.1" y2="134.4" stroke-width="0.5" stroke="#000" fill="none"/>
  <line id="l0124" x1="149.7" y1="133.6" x2="153.9" y2="136.3" stroke-width="0.5" stroke="#000" fill="none"/>
  <line id="l0126" x1="148.5" y1="135.3" x2="152.6" y2="138.2" stroke-width="0.5" stroke="#000" fill="none"/>
  <line id="l0128" x1="147.3" y1="136.9" x2="151.2" y2="140" stroke-width="0.5" stroke="#000" fill="none"/>
  <line id="l0130" x1="146" y1="138.6" x2="149.8" y2="141.8" stroke-width="0.5" stroke="#000" fill="none"/>
  <line id="l0132" x1="144.6" y1="140.1" x2="148.3" y2="143.5" stroke-width="0.5" stroke="#000" fill="none"/>
  <line id="l0134" x1="143.2" y1="141.7" x2="146.8" y2="145.2" stroke-width="0.5" stroke="#000" fill="none"/>
  <line id="l0136" x1="141.7" y1="143.2" x2="145.2" y2="146.8" stroke-width="0.5" stroke="#000" fill="none"/>
  <line id="l0138" x1="140.1" y1="144.6" x2="143.5" y2="148.3" stroke-width="0.5" stroke="#000" fill="none"/>
  <line id="l0140" x1="138.6" y1="146" x2="141.8" y2="149.8" stroke-width="0.5" stroke="#000" fill="none"/>
  <line id="l0142" x1="136.9" y1="147.3" x2="140" y2="151.2" stroke-width="0.5" stroke="#000" fill="none"/>
  <line id="l0144" x1="135.3" y1="148.5" x2="138.2" y2="152.6" stroke-width="0.5" stroke="#000" fill="none"/>
  <line id="l0146" x1="133.6" y1="149.7" x2="136.3" y2="153.9" stroke-width="0.5" stroke="#000" fill="none"/>
  <line id="l0148" x1="131.8" y1="150.9" x2="134.4" y2="155.1" stroke-width="0.5" stroke="#000" fill="none"/>
  <line id="l0150" x1="130" y1="152" x2="132.5" y2="156.3" stroke-width="0.5" stroke="#000" fill="none"/>
  <line id="l0152" x1="128.2" y1="153" x2="130.5" y2="157.4" stroke-width="0.5" stroke="#000" fill="none"/>
  <line id="l0154" x1="126.3" y1="153.9" x2="128.5" y2="158.4" stroke-width="0.5" stroke="#000" fill="none"/>
  <line id="l0156" x1="124.4" y1="154.8" x2="126.4" y2="159.4" stroke-width="0.5" stroke="#000" fill="none"/>
  <line id="l0158" x1="122.5" y1="155.6" x2="124.3" y2="160.3" stroke-width="0.5" stroke="#000" fill="none"/>
  <line id="l0160" x1="120.5" y1="156.4" x2="122.2" y2="161.1" stroke-width="0.5" stroke="#000" fill="none"/>
  <line id="l0162" x1="118.5" y1="157.1" x2="120.1" y2="161.8" stroke-width="0.5" stroke="#000" fill="none"/>
  <line id="l0164" x1="116.5" y1="157.7" x2="117.9" y2="162.5" stroke-width="0.5" stroke="#000" fill="none"/>
  <line id="l0166" x1="114.5" y1="158.2" x2="115.7" y2="163.1" stroke-width="0.5" stroke="#000" fill="none"/>
  <line id="l0168" x1="112.5" y1="158.7" x2="113.5" y2="163.6" stroke-width="0.5" stroke="#000" fill="none"/>
  <line id="l0170" x1="110.4" y1="159.1" x2="111.3" y2="164" stroke-width="0.5" stroke="#000" fill="none"/>
  <line id="l0172" x1="108.4" y1="159.4" x2="109" y2="164.4" stroke-width="0.5" stroke="#000" fill="none"/>
  <line id="l0174" x1="106.3" y1="159.7" x2="106.8" y2="164.6" stroke-width="0.5" stroke="#000" fill="none"/>
  <line id="l0176" x1="104.2" y1="159.9" x2="104.5" y2="164.8" stroke-width="0.5" stroke="#000" fill="none"/>
  <line id="l0178" x1="102.1" y1="160" x2="102.3" y2="165" stroke-width="0.5" stroke="#000" fill="none"/>
  <line id="l0180" x1="100" y1="160" x2="100" y2="165" stroke-width="0.5" stroke="#000" fill="none"/>
  <line id="l0182" x1="97.9" y1="160" x2="97.7" y2="165" stroke-width="0.5" stroke="#000" fill="none"/>
  <line id="l0184" x1="95.8" y1="159.9" x2="95.5" y2="164.8" stroke-width="0.5" stroke="#000" fill="none"/>
  <line id="l0186" x1="93.7" y1="159.7" x2="93.2" y2="164.6" stroke-width="0.5" stroke="#000" fill="none"/>
  <line id="l0188" x1="91.6" y1="159.4" x2="91" y2="164.4" stroke-width="0.5" stroke="#000" fill="none"/>
  <line id="l0190" x1="89.6" y1="159.1" x2="88.7" y2="164" stroke-width="0.5" stroke="#000" fill="none"/>
  <line id="l0192" x1="87.5" y1="158.7" x2="86.5" y2="163.6" stroke-width="0.5" stroke="#000" fill="none"/>
  <line id="l0194" x1="85.5" y1="158.2" x2="84.3" y2="163.1" stroke-width="0.5" stroke="#000" fill="none"/>
  <line id="l0196" x1="83.5" y1="157.7" x2="82.1" y2="162.5" stroke-width="0.5" stroke="#000" fill="none"/>
  <line id="l0198" x1="81.5" y1="157.1" x2="79.9" y2="161.8" stroke-width="0.5" stroke="#000" fill="none"/>
  <line id="l0200" x1="79.5" y1="156.4" x2="77.8" y2="161.1" stroke-width="0.5" stroke="#000" fill="none"/>
  <line id="l0202" x1="77.5" y1="155.6" x2="75.7" y2="160.3" stroke-width="0.5" stroke="#000" fill="none"/>
  <line id="l0204" x1="75.6" y1="154.8" x2="73.6" y2="159.4" stroke-width="0.5" stroke="#000" fill="none"/>
  <line id="l0206" x1="73.7" y1="153.9" x2="71.5" y2="158.4" stroke-width="0.5" stroke="#000" fill="none"/>
  <line id="l0208" x1="71.8" y1="153" x2="69.5" y2="157.4" stroke-width="0.5" stroke="#000" fill="none"/>
  <line id="l0210" x1="70" y1="152" x2="67.5" y2="156.3" stroke-width="0.5" stroke="#000" fill="none"/>
  <line id="l0212" x1="68.2" y1="150.9" x2="65.6" y2="155.1" stroke-width="0.5" stroke="#000" fill="none"/>
  <line id="l0214" x1="66.4" y1="149.7" x2="63.7" y2="153.9" stroke-width="0.5" stroke="#000" fill="none"/>
  <line id="l0216" x1="64.7" y1="148.5" x2="61.8" y2="152.6" stroke-width="0.5" stroke="#000" fill="none"/>
  <line id="l0218" x1="63.1" y1="147.3" x2="60" y2="151.2" stroke-width="0.5" stroke="#000" fill="none"/>
  <line id="l0220" x1="61.4" y1="146" x2="58.2" y2="149.8" stroke-width="0.5" stroke="#000" fill="none"/>
  <line id="l0222" x1="59.9" y1="144.6" x2="56.5" y2="148.3" stroke-width="0.5" stroke="#000" fill="none"/>
  <line id="l0224" x1="58.3" y1="143.2" x2="54.8" y2="146.8" stroke-width="0.5" stroke="#000" fill="none"/>
  <line id="l0226" x1="56.8" y1="141.7" x2="53.2" y2="145.2" stroke-width="0.5" stroke="#000" fill="none"/>
  <line id="l0228" x1="55.4" y1="140.1" x2="51.7" y2="143.5" stroke-width="0.5" stroke="#000" fill="none"/>
  <line id="l0230" x1="54" y1="138.6" x2="50.2" y2="141.8" stroke-width="0.5" stroke="#000" fill="none"/>
  <line id="l0232" x1="52.7" y1="136.9" x2="48.8" y2="140" stroke-width="0.5" stroke="#000" fill="none"/>
  <line id="l0234" x1="51.5" y1="135.3" x2="47.4" y2="138.2" stroke-width="0.5" stroke="#000" fill="none"/>
  <line id="l0236" x1="50.3" y1="133.6" x2="46.1" y2="136.3" stroke-width="0.5" stroke="#000" fill="none"/>
  <line id="l0238" x1="49.1" y1="131.8" x2="44.9" y2="134.4" stroke-width="0.5" stroke="#000" fill="none"/>
  <line id="l0240" x1="48" y1="130" x2="43.7" y2="132.5" stroke-width="0.5" stroke="#000" fill="none"/>
  <line id="l0242" x1="47" y1="128.2" x2="42.6" y2="130.5" stroke-width="0.5" stroke="#000" fill="none"/>
  <line id="l0244" x1="46.1" y1="126.3" x2="41.6" y2="128.5" stroke-width="0.5" stroke="#000" fill="none"/>
  <line id="l0246" x1="45.2" y1="124.4" x2="40.6" y2="126.4" stroke-width="0.5" stroke="#000" fill="none"/>
  <line id="l0248" x1="44.4" y1="122.5" x2="39.7" y2="124.3" stroke-width="0.5" stroke="#000" fill="none"/>
  <line id="l0250" x1="43.6" y1="120.5" x2="38.9" y2="122.2" stroke-width="0.5" stroke="#000" fill="none"/>
  <line id="l0252" x1="42.9" y1="118.5" x2="38.2" y2="120.1" stroke-width="0.5" stroke="#000" fill="none"/>
  <line id="l0254" x1="42.3" y1="116.5" x2="37.5" y2="117.9" stroke-width="0.5" stroke="#000" fill="none"/>
  <line id="l0256" x1="41.8" y1="114.5" x2="36.9" y2="115.7" stroke-width="0.5" stroke="#000" fill="none"/>
  <line id="l0258" x1="41.3" y1="112.5" x2="36.4" y2="113.5" stroke-width="0.5" stroke="#000" fill="none"/>
  <line id="l0260" x1="40.9" y1="110.4" x2="36" y2="111.3" stroke-width="0.5" stroke="#000" fill="none"/>
  <line id="l0262" x1="40.6" y1="108.4" x2="35.6" y2="109" stroke-width="0.5" stroke="#000" fill="none"/>
  <line id="l0264" x1="40.3" y1="106.3" x2="35.4" y2="106.8" stroke-width="0.5" stroke="#000" fill="none"/>
  <line id="l0266" x1="40.1" y1="104.2" x2="35.2" y2="104.5" stroke-width="0.5" stroke="#000" fill="none"/>
  <line id="l0268" x1="40" y1="102.1" x2="35" y2="102.3" stroke-width="0.5" stroke="#000" fill="none"/>
  <line id="l0270" x1="40" y1="100" x2="35" y2="100" stroke-width="0.5" stroke="#000" fill="none"/>
  <line id="l0272" x1="40" y1="97.9" x2="35" y2="97.7" stroke-width="0.5" stroke="#000" fill="none"/>
  <line id="l0274" x1="40.1" y1="95.8" x2="35.2" y2="95.5" stroke-width="0.5" stroke="#000" fill="none"/>
  <line id="l0276" x1="40.3" y1="93.7" x2="35.4" y2="93.2" stroke-width="0.5" stroke="#000" fill="none"/>
  <line id="l0278" x1="40.6" y1="91.6" x2="35.6" y2="91" stroke-width="0.5" stroke="#000" fill="none"/>
  <line id="l0280" x1="40.9" y1="89.6" x2="36" y2="88.7" stroke-width="0.5" stroke="#000" fill="none"/>
  <line id="l0282" x1="41.3" y1="87.5" x2="36.4" y2="86.5" stroke-width="0.5" stroke="#000" fill="none"/>
  <line id="l0284" x1="41.8" y1="85.5" x2="36.9" y2="84.3" stroke-width="0.5" stroke="#000" fill="none"/>
  <line id="l0286" x1="42.3" y1="83.5" x2="37.5" y2="82.1" stroke-width="0.5" stroke="#000" fill="none"/>
  <line id="l0288" x1="42.9" y1="81.5" x2="38.2" y2="79.9" stroke-width="0.5" stroke="#000" fill="none"/>
  <line id="l0290" x1="43.6" y1="79.5" x2="38.9" y2="77.8" stroke-width="0.5" stroke="#000" fill="none"/>
  <line id="l0292" x1="44.4" y1="77.5" x2="39.7" y2="75.7" stroke-width="0.5" stroke="#000" fill="none"/>
  <line id="l0294" x1="45.2" y1="75.6" x2="40.6" y2="73.6" stroke-width="0.5" stroke="#000" fill="none"/>
  <line id="l0296" x1="46.1" y1="73.7" x2="41.6" y2="71.5" stroke-width="0.5" stroke="#000" fill="none"/>
  <line id="l0298" x1="47" y1="71.8" x2="42.6" y2="69.5" stroke-width="0.5" stroke="#000" fill="none"/>
  <line id="l0300" x1="48" y1="70" x2="43.7" y2="67.5" stroke-width="0.5" stroke="#000" fill="none"/>
  <line id="l0302" x1="49.1" y1="68.2" x2="44.9" y2="65.6" stroke-width="0.5" stroke="#000" fill="none"/>
  <line id="l0304" x1="50.3" y1="66.4" x2="46.1" y2="63.7" stroke-width="0.5" stroke="#000" fill="none"/>
  <line id="l0306" x1="51.5" y1="64.7" x2="47.4" y2="61.8" stroke-width="0.5" stroke="#000" fill="none"/>
  <line id="l0308" x1="52.7" y1="63.1" x2="48.8" y2="60" stroke-width="0.5" stroke="#000" fill="none"/>
  <line id="l0310" x1="54" y1="61.4" x2="50.2" y2="58.2" stroke-width="0.5" stroke="#000" fill="none"/>
  <line id="l0312" x1="55.4" y1="59.9" x2="51.7" y2="56.5" stroke-width="0.5" stroke="#000" fill="none"/>
  <line id="l0314" x1="56.8" y1="58.3" x2="53.2" y2="54.8" stroke-width="0.5" stroke="#000" fill="none"/>
  <line id="l0316" x1="58.3" y1="56.8" x2="54.8" y2="53.2" stroke-width="0.5" stroke="#000" fill="none"/>
  <line id="l0318" x1="59.9" y1="55.4" x2="56.5" y2="51.7" stroke-width="0.5" stroke="#000" fill="none"/>
  <line id="l0320" x1="61.4" y1="54" x2="58.2" y2="50.2" stroke-width="0.5" stroke="#000" fill="none"/>
  <line id="l0322" x1="63.1" y1="52.7" x2="60" y2="48.8" stroke-width="0.5" stroke="#000" fill="none"/>
  <line id="l0324" x1="64.7" y1="51.5" x2="61.8" y2="47.4" stroke-width="0.5" stroke="#000" fill="none"/>
  <line id="l0326" x1="66.4" y1="50.3" x2="63.7" y2="46.1" stroke-width="0.5" stroke="#000" fill="none"/>
  <line id="l0328" x1="68.2" y1="49.1" x2="65.6" y2="44.9" stroke-width="0.5" stroke="#000" fill="none"/>
  <line id="l0330" x1="70" y1="48" x2="67.5" y2="43.7" stroke-width="0.5" stroke="#000" fill="none"/>
  <line id="l0332" x1="71.8" y1="47" x2="69.5" y2="42.6" stroke-width="0.5" stroke="#000" fill="none"/>
  <line id="l0334" x1="73.7" y1="46.1" x2="71.5" y2="41.6" stroke-width="0.5" stroke="#000" fill="none"/>
  <line id="l0336" x1="75.6" y1="45.2" x2="73.6" y2="40.6" stroke-width="0.5" stroke="#000" fill="none"/>
  <line id="l0338" x1="77.5" y1="44.4" x2="75.7" y2="39.7" stroke-width="0.5" stroke="#000" fill="none"/>
  <line id="l0340" x1="79.5" y1="43.6" x2="77.8" y2="38.9" stroke-width="0.5" stroke="#000" fill="none"/>
  <line id="l0342" x1="81.5" y1="42.9" x2="79.9" y2="38.2" stroke-width="0.5" stroke="#000" fill="none"/>
  <line id="l0344" x1="83.5" y1="42.3" x2="82.1" y2="37.5" stroke-width="0.5" stroke="#000" fill="none"/>
  <line id="l0346" x1="85.5" y1="41.8" x2="84.3" y2="36.9" stroke-width="0.5" stroke="#000" fill="none"/>
  <line id="l0348" x1="87.5" y1="41.3" x2="86.5" y2="36.4" stroke-width="0.5" stroke="#000" fill="none"/>
  <line id="l0350" x1="89.6" y1="40.9" x2="88.7" y2="36" stroke-width="0.5" stroke="#000" fill="none"/>
  <line id="l0352" x1="91.6" y1="40.6" x2="91" y2="35.6" stroke-width="0.5" stroke="#000" fill="none"/>
  <line id="l0354" x1="93.7" y1="40.3" x2="93.2" y2="35.4" stroke-width="0.5" stroke="#000" fill="none"/>
  <line id="l0356" x1="95.8" y1="40.1" x2="95.5" y2="35.2" stroke-width="0.5" stroke="#000" fill="none"/>
  <line id="l0358" x1="97.9" y1="40" x2="97.7" y2="35" stroke-width="0.5" stroke="#000" fill="none"/>

  <circle cx="100" cy="100" r="70" stroke="#000" stroke-width="1.5" fill="none" fill-opacity="0"></circle>
  <circle cx="100" cy="100" r="45" stroke="#000" stroke-width="0.5" fill="none" fill-opacity="0"></circle>
  <circle cx="100" cy="100" r="40" stroke="#000" stroke-width="0.5" fill="none" fill-opacity="0"></circle>
  <circle cx="100" cy="100" r="20" stroke="#000" stroke-width="1.5" fill="none" fill-opacity="0"></circle>

  <path id="p000_0" d="M 100,15 L 100,100 L 107,100 z" fill="#FFFFFF" stroke="#000000" stroke-width="0.5"/>
  <path id="p000_1" d="M 100,15 L 93,100 L 100,100 z" fill="#C00000" stroke="#000000" stroke-width="0.5"/>
  <path id="p180_0" d="M 100,185 L 93,100 L 100,100 z" fill="#FFFFFF" stroke="#000000" stroke-width="0.5"/>
  <path id="p180_1" d="M 100,185 L 100,100 L 107,100 z" fill="#C00000" stroke="#000000" stroke-width="0.5"/>
  <path id="p090_0" d="M 185,100 L 100,100 L 100,107 z" fill="#FFFFFF" stroke="#000000" stroke-width="0.5"/>
  <path id="p090_1" d="M 185,100 L 100,93 L 100,100 z" fill="#C00000" stroke="#000000" stroke-width="0.5"/>
  <path id="p270_0" d="M 15,100 L 100,93 L 100,100 z" fill="#FFFFFF" stroke="#000000" stroke-width="0.5"/>
  <path id="p270_1" d="M 15,100 L 100,100 L 100,107 z" fill="#C00000" stroke="#000000" stroke-width="0.5"/>

  <path id="p045_0" d="M 130.1,69.9 L 100,100 L 107,100 z" fill="#FFFFFF" stroke="#000000" stroke-width="0.5"/>
  <path id="p045_1" d="M 130.1,69.9 L 100,93 L 100,100 z" fill="#C0C0C0" stroke="#000000" stroke-width="0.5"/>
  <path id="p135_0" d="M 130.1,130.1 L 100,100 L 100,107 z" fill="#FFFFFF" stroke="#000000" stroke-width="0.5"/>
  <path id="p135_1" d="M 130.1,130.1 L 107,100 L 100,100 z" fill="#C0C0C0" stroke="#000000" stroke-width="0.5"/>
  <path id="p225_0" d="M 69.9,130.1 L 93,100 L 100,100 z" fill="#FFFFFF" stroke="#000000" stroke-width="0.5"/>
  <path id="p225_1" d="M 69.9,130.1 L 100,100 L 100,107 z" fill="#C0C0C0" stroke="#000000" stroke-width="0.5"/>
  <path id="p315_1" d="M 69.9,69.9 L 100,100 L 93,100 z" fill="#C0C0C0" stroke="#000000" stroke-width="0.5"/>
  <path id="p315_0" d="M 69.9,69.9 L 100,93 L 100,100 z" fill="#FFFFFF" stroke="#000000" stroke-width="0.5"/>

  <text x="100" y="12" text-anchor="middle" stroke-width="0" stroke="#000" fill="#000000"
   font-family="Helvetica, Arial, sans-serif" font-size="12" font-weight="bold"
  >子🅽坎</text>
  <text x="188" y="100" text-anchor="middle" stroke-width="0" stroke="#000" fill="#000000"
   font-family="Helvetica, Arial, sans-serif" font-size="12" font-weight="bold"
   transform="rotate(90 188 100)"
  >卯🄔震</text>
  <text x="100" y="188" text-anchor="middle" stroke-width="0" stroke="#000" fill="#000000"
   font-family="Helvetica, Arial, sans-serif" font-size="12" font-weight="bold"
   transform="rotate(180 100 188)"
  >午🄢离</text>
  <text x="12" y="100" text-anchor="middle" stroke-width="0" stroke="#000" fill="#000000"
   font-family="Helvetica, Arial, sans-serif" font-size="12" font-weight="bold"
   transform="rotate(270 12 100)"
  >酉🄦兑</text>

  <text x="160.1" y="39.9" text-anchor="middle" stroke-width="0" stroke="#000" fill="#000000"
   font-family="Helvetica, Arial, sans-serif" font-size="12" font-weight="bold"
   transform="rotate(45 160.1 39.9)"
  >N艮E</text>
  <text x="160.1" y="160.1" text-anchor="middle" stroke-width="0" stroke="#000" fill="#000000"
   font-family="Helvetica, Arial, sans-serif" font-size="12" font-weight="bold"
   transform="rotate(135 160.1 160.1)"
  >S巽E</text>
  <text x="39.9" y="160.1" text-anchor="middle" stroke-width="0" stroke="#000" fill="#000000"
   font-family="Helvetica, Arial, sans-serif" font-size="12" font-weight="bold"
   transform="rotate(225 39.9 160.1)"
  >S坤W</text>
  <text x="39.9" y="39.9" text-anchor="middle" stroke-width="0" stroke="#000" fill="#000000"
   font-family="Helvetica, Arial, sans-serif" font-size="12" font-weight="bold"
   transform="rotate(315 39.9 39.9)"
  >N乾W</text>

  <text x="142.5" y="26.4" text-anchor="middle" stroke-width="0" stroke="#CCC" fill="#000000"
   font-family="Helvetica, Arial, sans-serif" font-size="10"
   transform="rotate(30 142.5 26.4)"
  >丑</text>
  <text x="173.6" y="57.5" text-anchor="middle" stroke-width="0" stroke="#C0C0C0" fill="#000000"
   font-family="Helvetica, Arial, sans-serif" font-size="10"
   transform="rotate(60 173.6 57.5)"
  >寅</text>
  <text x="173.6" y="142.5" text-anchor="middle" stroke-width="0" stroke="#C0C0C0" fill="#000000"
   font-family="Helvetica, Arial, sans-serif" font-size="10"
   transform="rotate(120 173.6 142.5)"
  >辰</text>
  <text x="142.5" y="173.6" text-anchor="middle" stroke-width="0" stroke="#C0C0C0" fill="#000000"
   font-family="Helvetica, Arial, sans-serif" font-size="10"
   transform="rotate(150 142.5 173.6)"
  >巳</text>
  <text x="57.5" y="173.6" text-anchor="middle" stroke-width="0" stroke="#C0C0C0" fill="#000000"
   font-family="Helvetica, Arial, sans-serif" font-size="10"
   transform="rotate(210 57.5 173.6)"
  >未</text>
  <text x="26.4" y="142.5" text-anchor="middle" stroke-width="0" stroke="#C0C0C0" fill="#000000"
   font-family="Helvetica, Arial, sans-serif" font-size="10"
   transform="rotate(240 26.4 142.5)"
  >申</text>
  <text x="26.4" y="57.5" text-anchor="middle" stroke-width="0" stroke="#C0C0C0" fill="#000000"
   font-family="Helvetica, Arial, sans-serif" font-size="10"
   transform="rotate(300 26.4 57.5)"
  >戌</text>
  <text x="57.5" y="26.4" text-anchor="middle" stroke-width="0" stroke="#C0C0C0" fill="#000000"
   font-family="Helvetica, Arial, sans-serif" font-size="10"
   transform="rotate(330 57.5 26.4)"
  >亥</text>
 </g>
</svg>
