<?xml version="1.0" encoding="UTF-8" standalone="no"?>
<!DOCTYPE svg PUBLIC "-//W3C//DTD SVG 1.1//EN" "http://www.w3.org/Graphics/SVG/1.1/DTD/svg11.dtd">
<svg xmlns="http://www.w3.org/2000/svg" version="1.1" viewBox="0 0 200 200">
 <g  transform="rotate(0 100 100)"><!--QuoInsight-->
  <circle cx="100" cy="100" r="70" stroke="#000" stroke-width="1" fill="none" fill-opacity="0"></circle>

  <line id="l000" x1="100" y1="15" x2="100" y2="185" stroke-width="1" stroke="#000" fill="none"/>
  <line id="l090" x1="15" y1="100" x2="185" y2="100" stroke-width="1" stroke="#000" fill="none"/>
  <line id="l045" x1="39.9" y1="160.1" x2="160.1" y2="39.9" stroke-width="1" stroke="#000" fill="none"/>
  <line id="l315" x1="39.9" y1="39.9" x2="160.1" y2="160.1" stroke-width="1" stroke="#000" fill="none"/>

  <line id="l030" x1="57.5" y1="173.6" x2="142.5" y2="26.4" stroke-dasharray="2,2" stroke-width="1" stroke="#CCC" fill="none"/>
  <line id="l060" x1="26.4" y1="142.5" x2="173.6" y2="57.5" stroke-dasharray="2,2" stroke-width="1" stroke="#CCC" fill="none"/>
  <line id="l120" x1="26.4" y1="57.5" x2="173.6" y2="142.5" stroke-dasharray="2,2" stroke-width="1" stroke="#CCC" fill="none"/>
  <line id="l150" x1="57.5" y1="26.4" x2="142.5" y2="173.6" stroke-dasharray="2,2" stroke-width="1" stroke="#CCC" fill="none"/>

  <line id="l010" x1="114.8" y1="16.3" x2="82.2" y2="183.7" stroke-dasharray="2,2" stroke-width="1" stroke="#CCC" fill="none"/>
  <line id="l020" x1="129.1" y1="20.1" x2="70.9" y2="179.1" stroke-dasharray="2,2" stroke-width="1" stroke="#CCC" fill="none"/>
  <line id="l040" x1="154.6" y1="34.9" x2="45.4" y2="165.1" stroke-dasharray="2,2" stroke-width="1" stroke="#CCC" fill="none"/>
  <line id="l050" x1="165.1" y1="45.4" x2="34.9" y2="154.6" stroke-dasharray="2,2" stroke-width="1" stroke="#CCC" fill="none"/>
  <line id="l070" x1="179.9" y1="70.9" x2="20.1" y2="129.1" stroke-dasharray="2,2" stroke-width="1" stroke="#CCC" fill="none"/>
  <line id="l080" x1="183.7" y1="85.2" x2="16.3" y2="114.8" stroke-dasharray="2,2" stroke-width="1" stroke="#CCC" fill="none"/>
  <line id="l100" x1="183.7" y1="114.8" x2="16.3" y2="85.2" stroke-dasharray="2,2" stroke-width="1" stroke="#CCC" fill="none"/>
  <line id="l110" x1="179.9" y1="129.1" x2="20.1" y2="70.9" stroke-dasharray="2,2" stroke-width="1" stroke="#CCC" fill="none"/>
  <line id="l130" x1="165.1" y1="154.6" x2="34.9" y2="45.4" stroke-dasharray="2,2" stroke-width="1" stroke="#CCC" fill="none"/>
  <line id="l140" x1="154.6" y1="165.1" x2="45.4" y2="34.9" stroke-dasharray="2,2" stroke-width="1" stroke="#CCC" fill="none"/>
  <line id="l160" x1="129.1" y1="179.9" x2="70.9" y2="20.1" stroke-dasharray="2,2" stroke-width="1" stroke="#CCC" fill="none"/>
  <line id="l170" x1="114.8" y1="183.7" x2="85.2" y2="16.3" stroke-dasharray="2,2" stroke-width="1" stroke="#CCC" fill="none"/>

  <circle cx="100" cy="100" r="70" stroke="#000" stroke-width="1.5" fill="none" fill-opacity="0"></circle>
  <circle cx="100" cy="100" r="45" stroke="#000" stroke-width="0.5" fill="none" fill-opacity="0"></circle>
  <circle cx="100" cy="100" r="40" stroke="#000" stroke-width="0.5" fill="none" fill-opacity="0"></circle>
  <circle cx="100" cy="100" r="20" stroke="#000" stroke-width="1.5" fill="none" fill-opacity="0"></circle>

  <path id="p000_0" d="M 100,15 L 100,100 L 107,100 z" fill="#FFFFFF" stroke="#000000" stroke-width="0.5"/>
  <path id="p000_1" d="M 100,15 L 93,100 L 100,100 z" fill="#C00000" stroke="#000000" stroke-width="0.5"/>
  <path id="p180_0" d="M 100,185 L 93,100 L 100,100 z" fill="#FFFFFF" stroke="#000000" stroke-width="0.5"/>
  <path id="p180_1" d="M 100,185 L 100,100 L 107,100 z" fill="#C00000" stroke="#000000" stroke-width="0.5"/>
  <path id="p090_0" d="M 185,100 L 100,100 L 100,107 z" fill="#FFFFFF" stroke="#000000" stroke-width="0.5"/>
  <path id="p090_1" d="M 185,100 L 100,93 L 100,100 z" fill="#C00000" stroke="#000000" stroke-width="0.5"/>
  <path id="p270_0" d="M 15,100 L 100,93 L 100,100 z" fill="#FFFFFF" stroke="#000000" stroke-width="0.5"/>
  <path id="p270_1" d="M 15,100 L 100,100 L 100,107 z" fill="#C00000" stroke="#000000" stroke-width="0.5"/>

  <path id="p045_0" d="M 130.1,69.9 L 100,100 L 107,100 z" fill="#FFFFFF" stroke="#000000" stroke-width="0.5"/>
  <path id="p045_1" d="M 130.1,69.9 L 100,93 L 100,100 z" fill="#C0C0C0" stroke="#000000" stroke-width="0.5"/>
  <path id="p135_0" d="M 130.1,130.1 L 100,100 L 100,107 z" fill="#FFFFFF" stroke="#000000" stroke-width="0.5"/>
  <path id="p135_1" d="M 130.1,130.1 L 107,100 L 100,100 z" fill="#C0C0C0" stroke="#000000" stroke-width="0.5"/>
  <path id="p225_0" d="M 69.9,130.1 L 93,100 L 100,100 z" fill="#FFFFFF" stroke="#000000" stroke-width="0.5"/>
  <path id="p225_1" d="M 69.9,130.1 L 100,100 L 100,107 z" fill="#C0C0C0" stroke="#000000" stroke-width="0.5"/>
  <path id="p315_1" d="M 69.9,69.9 L 100,100 L 93,100 z" fill="#C0C0C0" stroke="#000000" stroke-width="0.5"/>
  <path id="p315_0" d="M 69.9,69.9 L 100,93 L 100,100 z" fill="#FFFFFF" stroke="#000000" stroke-width="0.5"/>

  <text x="100" y="12" text-anchor="middle" stroke-width="0" stroke="#000" fill="#000000"
   font-family="Helvetica, Arial, sans-serif" font-size="12" font-weight="bold"
  >тГљ­ЪЁйтЮј</text>
  <text x="188" y="100" text-anchor="middle" stroke-width="0" stroke="#000" fill="#000000"
   font-family="Helvetica, Arial, sans-serif" font-size="12" font-weight="bold"
   transform="rotate(90 188 100)"
  >тЇ»­ЪёћжюЄ</text>
  <text x="100" y="188" text-anchor="middle" stroke-width="0" stroke="#000" fill="#000000"
   font-family="Helvetica, Arial, sans-serif" font-size="12" font-weight="bold"
   transform="rotate(180 100 188)"
  >тЇѕ­Ъёбуд╗</text>
  <text x="12" y="100" text-anchor="middle" stroke-width="0" stroke="#000" fill="#000000"
   font-family="Helvetica, Arial, sans-serif" font-size="12" font-weight="bold"
   transform="rotate(270 12 100)"
  >жЁЅ­ЪёдтЁЉ</text>

  <text x="160.1" y="39.9" text-anchor="middle" stroke-width="0" stroke="#000" fill="#000000"
   font-family="Helvetica, Arial, sans-serif" font-size="12" font-weight="bold"
   transform="rotate(45 160.1 39.9)"
  >NУЅ«E</text>
  <text x="160.1" y="160.1" text-anchor="middle" stroke-width="0" stroke="#000" fill="#000000"
   font-family="Helvetica, Arial, sans-serif" font-size="12" font-weight="bold"
   transform="rotate(135 160.1 160.1)"
  >SтийE</text>
  <text x="39.9" y="160.1" text-anchor="middle" stroke-width="0" stroke="#000" fill="#000000"
   font-family="Helvetica, Arial, sans-serif" font-size="12" font-weight="bold"
   transform="rotate(225 39.9 160.1)"
  >SтЮцW</text>
  <text x="39.9" y="39.9" text-anchor="middle" stroke-width="0" stroke="#000" fill="#000000"
   font-family="Helvetica, Arial, sans-serif" font-size="12" font-weight="bold"
   transform="rotate(315 39.9 39.9)"
  >NС╣ЙW</text>

  <text x="142.5" y="26.4" text-anchor="middle" stroke-width="0" stroke="#CCC" fill="#000000"
   font-family="Helvetica, Arial, sans-serif" font-size="10"
   transform="rotate(30 142.5 26.4)"
  >СИЉ</text>
  <text x="173.6" y="57.5" text-anchor="middle" stroke-width="0" stroke="#C0C0C0" fill="#000000"
   font-family="Helvetica, Arial, sans-serif" font-size="10"
   transform="rotate(60 173.6 57.5)"
  >т»Ё</text>
  <text x="173.6" y="142.5" text-anchor="middle" stroke-width="0" stroke="#C0C0C0" fill="#000000"
   font-family="Helvetica, Arial, sans-serif" font-size="10"
   transform="rotate(120 173.6 142.5)"
  >УЙ░</text>
  <text x="142.5" y="173.6" text-anchor="middle" stroke-width="0" stroke="#C0C0C0" fill="#000000"
   font-family="Helvetica, Arial, sans-serif" font-size="10"
   transform="rotate(150 142.5 173.6)"
  >ти│</text>
  <text x="57.5" y="173.6" text-anchor="middle" stroke-width="0" stroke="#C0C0C0" fill="#000000"
   font-family="Helvetica, Arial, sans-serif" font-size="10"
   transform="rotate(210 57.5 173.6)"
  >Тюф</text>
  <text x="26.4" y="142.5" text-anchor="middle" stroke-width="0" stroke="#C0C0C0" fill="#000000"
   font-family="Helvetica, Arial, sans-serif" font-size="10"
   transform="rotate(240 26.4 142.5)"
  >ућ│</text>
  <text x="26.4" y="57.5" text-anchor="middle" stroke-width="0" stroke="#C0C0C0" fill="#000000"
   font-family="Helvetica, Arial, sans-serif" font-size="10"
   transform="rotate(300 26.4 57.5)"
  >Тѕї</text>
  <text x="57.5" y="26.4" text-anchor="middle" stroke-width="0" stroke="#C0C0C0" fill="#000000"
   font-family="Helvetica, Arial, sans-serif" font-size="10"
   transform="rotate(330 57.5 26.4)"
  >С║Ц</text>
 </g>
</svg>
